<mxfile host="drawio-plugin" modified="2022-02-13T13:44:30.000Z" agent="5.0 (Macintosh; Intel Mac OS X 12_0_1) AppleWebKit/537.36 (KHTML, like Gecko) Chrome/89.0.4389.114 Safari/537.36" etag="fVgb_O6N7ezt_bvy7lry" version="15.5.4" type="embed"><diagram id="23iRSUPoRavnBvh4doch" name="Page-1"><mxGraphModel dx="529" dy="633" grid="1" gridSize="10" guides="1" tooltips="1" connect="1" arrows="1" fold="1" page="1" pageScale="1" pageWidth="827" pageHeight="1169" math="0" shadow="0"><root><mxCell id="0"/><mxCell id="1" parent="0"/><mxCell id="29" style="edgeStyle=orthogonalEdgeStyle;rounded=0;orthogonalLoop=1;jettySize=auto;html=1;" edge="1" parent="1" source="3" target="6"><mxGeometry relative="1" as="geometry"/></mxCell><mxCell id="3" value="START" style="rounded=1;whiteSpace=wrap;html=1;" vertex="1" parent="1"><mxGeometry x="294" y="20" width="120" height="60" as="geometry"/></mxCell><mxCell id="4" value="END" style="rounded=1;whiteSpace=wrap;html=1;" vertex="1" parent="1"><mxGeometry x="294" y="830" width="120" height="60" as="geometry"/></mxCell><mxCell id="5" style="edgeStyle=orthogonalEdgeStyle;rounded=0;orthogonalLoop=1;jettySize=auto;html=1;startArrow=none;" edge="1" parent="1" source="27" target="9"><mxGeometry relative="1" as="geometry"/></mxCell><mxCell id="6" value="Input n" style="shape=parallelogram;perimeter=parallelogramPerimeter;whiteSpace=wrap;html=1;fixedSize=1;" vertex="1" parent="1"><mxGeometry x="294" y="120" width="120" height="60" as="geometry"/></mxCell><mxCell id="7" value="YES" style="edgeStyle=orthogonalEdgeStyle;rounded=0;orthogonalLoop=1;jettySize=auto;html=1;" edge="1" parent="1" source="9" target="11"><mxGeometry relative="1" as="geometry"/></mxCell><mxCell id="31" style="edgeStyle=orthogonalEdgeStyle;rounded=0;orthogonalLoop=1;jettySize=auto;html=1;startArrow=none;" edge="1" parent="1" source="32" target="30"><mxGeometry relative="1" as="geometry"/></mxCell><mxCell id="9" value="If there are less than n repetitions" style="rhombus;whiteSpace=wrap;html=1;" vertex="1" parent="1"><mxGeometry x="314" y="320" width="80" height="80" as="geometry"/></mxCell><mxCell id="10" style="edgeStyle=orthogonalEdgeStyle;rounded=0;orthogonalLoop=1;jettySize=auto;html=1;exitX=1;exitY=0.25;exitDx=0;exitDy=0;" edge="1" parent="1" source="11" target="9"><mxGeometry relative="1" as="geometry"><Array as="points"><mxPoint x="265" y="340"/></Array></mxGeometry></mxCell><mxCell id="11" value="Input value into intik" style="shape=parallelogram;perimeter=parallelogramPerimeter;whiteSpace=wrap;html=1;fixedSize=1;" vertex="1" parent="1"><mxGeometry x="120" y="330" width="150" height="60" as="geometry"/></mxCell><mxCell id="27" value="Input k" style="shape=parallelogram;perimeter=parallelogramPerimeter;whiteSpace=wrap;html=1;fixedSize=1;" vertex="1" parent="1"><mxGeometry x="294" y="210" width="120" height="60" as="geometry"/></mxCell><mxCell id="28" value="" style="edgeStyle=orthogonalEdgeStyle;rounded=0;orthogonalLoop=1;jettySize=auto;html=1;endArrow=none;" edge="1" parent="1" source="6" target="27"><mxGeometry relative="1" as="geometry"><mxPoint x="354" y="160" as="sourcePoint"/><mxPoint x="354" y="320" as="targetPoint"/></mxGeometry></mxCell><mxCell id="35" style="edgeStyle=orthogonalEdgeStyle;rounded=0;orthogonalLoop=1;jettySize=auto;html=1;" edge="1" parent="1" source="30" target="34"><mxGeometry relative="1" as="geometry"/></mxCell><mxCell id="36" value="YES" style="edgeLabel;html=1;align=center;verticalAlign=middle;resizable=0;points=[];" vertex="1" connectable="0" parent="35"><mxGeometry x="0.1786" y="4" relative="1" as="geometry"><mxPoint as="offset"/></mxGeometry></mxCell><mxCell id="55" style="edgeStyle=orthogonalEdgeStyle;rounded=0;orthogonalLoop=1;jettySize=auto;html=1;startArrow=none;" edge="1" parent="1" source="56" target="50"><mxGeometry relative="1" as="geometry"/></mxCell><mxCell id="30" value="If there are less than n repetitions" style="rhombus;whiteSpace=wrap;html=1;" vertex="1" parent="1"><mxGeometry x="314" y="504.5" width="80" height="80" as="geometry"/></mxCell><mxCell id="32" value="i = k" style="rounded=0;whiteSpace=wrap;html=1;" vertex="1" parent="1"><mxGeometry x="294" y="420" width="120" height="60" as="geometry"/></mxCell><mxCell id="33" value="" style="edgeStyle=orthogonalEdgeStyle;rounded=0;orthogonalLoop=1;jettySize=auto;html=1;endArrow=none;" edge="1" parent="1" source="9" target="32"><mxGeometry relative="1" as="geometry"><mxPoint x="354" y="400" as="sourcePoint"/><mxPoint x="354" y="520" as="targetPoint"/></mxGeometry></mxCell><mxCell id="37" style="edgeStyle=orthogonalEdgeStyle;rounded=0;orthogonalLoop=1;jettySize=auto;html=1;startArrow=none;" edge="1" parent="1" source="38" target="30"><mxGeometry relative="1" as="geometry"><Array as="points"><mxPoint x="290" y="530"/><mxPoint x="290" y="530"/></Array></mxGeometry></mxCell><mxCell id="34" value="Output i-element of intik" style="shape=parallelogram;perimeter=parallelogramPerimeter;whiteSpace=wrap;html=1;fixedSize=1;" vertex="1" parent="1"><mxGeometry x="120" y="580" width="150" height="60" as="geometry"/></mxCell><mxCell id="38" value="i = i + 1" style="rounded=0;whiteSpace=wrap;html=1;" vertex="1" parent="1"><mxGeometry x="135" y="480" width="120" height="60" as="geometry"/></mxCell><mxCell id="39" value="" style="edgeStyle=orthogonalEdgeStyle;rounded=0;orthogonalLoop=1;jettySize=auto;html=1;endArrow=none;" edge="1" parent="1" source="34" target="38"><mxGeometry relative="1" as="geometry"><mxPoint x="195" y="580" as="sourcePoint"/><mxPoint x="328.5" y="530" as="targetPoint"/><Array as="points"/></mxGeometry></mxCell><mxCell id="48" style="edgeStyle=orthogonalEdgeStyle;rounded=0;orthogonalLoop=1;jettySize=auto;html=1;" edge="1" parent="1" source="50" target="52"><mxGeometry relative="1" as="geometry"/></mxCell><mxCell id="49" value="YES" style="edgeLabel;html=1;align=center;verticalAlign=middle;resizable=0;points=[];" vertex="1" connectable="0" parent="48"><mxGeometry x="0.1786" y="4" relative="1" as="geometry"><mxPoint as="offset"/></mxGeometry></mxCell><mxCell id="59" value="NO" style="edgeStyle=orthogonalEdgeStyle;rounded=0;orthogonalLoop=1;jettySize=auto;html=1;" edge="1" parent="1" source="50" target="4"><mxGeometry relative="1" as="geometry"/></mxCell><mxCell id="50" value="If there are less than k repetitions" style="rhombus;whiteSpace=wrap;html=1;" vertex="1" parent="1"><mxGeometry x="314" y="704.5" width="80" height="80" as="geometry"/></mxCell><mxCell id="51" style="edgeStyle=orthogonalEdgeStyle;rounded=0;orthogonalLoop=1;jettySize=auto;html=1;startArrow=none;" edge="1" parent="1" source="53" target="50"><mxGeometry relative="1" as="geometry"><Array as="points"><mxPoint x="290" y="730"/><mxPoint x="290" y="730"/></Array></mxGeometry></mxCell><mxCell id="52" value="Output i-element of intik" style="shape=parallelogram;perimeter=parallelogramPerimeter;whiteSpace=wrap;html=1;fixedSize=1;" vertex="1" parent="1"><mxGeometry x="120" y="780" width="150" height="60" as="geometry"/></mxCell><mxCell id="53" value="i = i + 1" style="rounded=0;whiteSpace=wrap;html=1;" vertex="1" parent="1"><mxGeometry x="135" y="680" width="120" height="60" as="geometry"/></mxCell><mxCell id="54" value="" style="edgeStyle=orthogonalEdgeStyle;rounded=0;orthogonalLoop=1;jettySize=auto;html=1;endArrow=none;" edge="1" parent="1" source="52" target="53"><mxGeometry relative="1" as="geometry"><mxPoint x="195" y="780" as="sourcePoint"/><mxPoint x="328.5" y="730" as="targetPoint"/><Array as="points"/></mxGeometry></mxCell><mxCell id="56" value="i = 0" style="rounded=0;whiteSpace=wrap;html=1;" vertex="1" parent="1"><mxGeometry x="294" y="620" width="120" height="60" as="geometry"/></mxCell><mxCell id="57" value="" style="edgeStyle=orthogonalEdgeStyle;rounded=0;orthogonalLoop=1;jettySize=auto;html=1;endArrow=none;" edge="1" parent="1" source="30" target="56"><mxGeometry relative="1" as="geometry"><mxPoint x="354" y="584.5" as="sourcePoint"/><mxPoint x="354" y="684.5" as="targetPoint"/></mxGeometry></mxCell><mxCell id="58" value="NO" style="edgeLabel;html=1;align=center;verticalAlign=middle;resizable=0;points=[];" vertex="1" connectable="0" parent="57"><mxGeometry x="-0.6629" y="-1" relative="1" as="geometry"><mxPoint as="offset"/></mxGeometry></mxCell></root></mxGraphModel></diagram></mxfile>